<svg xmlns="http://www.w3.org/2000/svg" xmlns:xlink="http://www.w3.org/1999/xlink" width="343" height="262" viewBox="0 0 343 262"><defs><style>.a,.d,.i{fill:#fff;}.b{clip-path:url(#a);}.c{fill:#ffce3a;}.d{font-size:19px;font-family:RobotoCondensed-Regular, Roboto;}.e{clip-path:url(#d);}.f{fill:#004876;}.g{font-size:15px;}.g,.i{font-family:RobotoCondensed-Bold, Roboto;font-weight:700;}.h{fill:#0082c3;}.i{font-size:10px;}.j{filter:url(#b);}</style><clipPath id="a"><rect class="a" width="343" height="262" transform="translate(18 155)"/></clipPath><filter id="b" x="4" y="6" width="337" height="257" filterUnits="userSpaceOnUse"><feOffset dy="3" input="SourceAlpha"/><feGaussianBlur stdDeviation="3" result="c"/><feFlood flood-opacity="0.161"/><feComposite operator="in" in2="c"/><feComposite in="SourceGraphic"/></filter><clipPath id="d"><rect class="a" width="319" height="239" rx="19" transform="translate(31 168)"/></clipPath></defs><g class="b" transform="translate(-18 -155)"><g transform="translate(0 -1)"><g class="j" transform="matrix(1, 0, 0, 1, 18, 156)"><rect class="a" width="319" height="239" rx="19" transform="translate(13 12)"/></g><g transform="translate(-2 3)"><circle class="c" cx="17.5" cy="17.5" r="17.5" transform="translate(24 158)"/><text class="d" transform="translate(41 182)"><tspan x="-4.639" y="0">1</tspan></text></g></g><g class="e" transform="translate(0 -1)"><g transform="translate(15.151)"><path class="c" d="M971.23,1192l37.164,245.476h226.455V1192Z" transform="translate(-879 -1027.882)"/><path class="f" d="M971.23,1192l37.164,245.476h226.455V1192Z" transform="translate(-875 -1027.882)"/></g></g><g transform="translate(-11.5 -0.39)"><text class="g" transform="translate(66 321.758)"><tspan x="0" y="0">GAME 1</tspan></text></g><g transform="translate(-7.479 -82)"><g transform="translate(57 333.106)"><path class="h" d="M-858.533,133.137a2.663,2.663,0,0,0-2.907-2.393h-8.046c.037-.577.042-1.059.114-1.531a.581.581,0,0,1,.358-.365,1.771,1.771,0,0,0,1.469-1.895,1.771,1.771,0,0,0-1.913-1.616h-32.065a1.774,1.774,0,0,0-1.9,1.462,1.774,1.774,0,0,0,1.441,2.053.587.587,0,0,1,.371.351c.068.473.069.954.1,1.511-.289.014-.486.031-.694.032h-7.172c-2.106,0-3.168,1.07-3.1,3.162a28.2,28.2,0,0,0,.931,6.426,18.124,18.124,0,0,0,5.966,9.612,18.43,18.43,0,0,0,10.36,4.122,1.562,1.562,0,0,1,.8.31c1.143.909,2.216,1.91,3.4,2.76a4.21,4.21,0,0,1,1.937,3.416c.017.462-.007.924,0,1.386a2.215,2.215,0,0,1-.969,1.908,5.661,5.661,0,0,1-1.4.8c-1.111.4-2.251.726-3.382,1.07a1.808,1.808,0,0,0-1.411,1.8,3.117,3.117,0,0,0,0,.422c.048.476-.11.71-.637.66a8.739,8.739,0,0,0-1.325,0,1.66,1.66,0,0,0-1.633,1.674q-.029,1.869,0,3.737s0,.007,0,.011a1.647,1.647,0,0,0,1.621,1.673c.321.021.643.006.965.006h24.11a1.748,1.748,0,0,0,.53,0,1.747,1.747,0,0,0,1.461-1.993c0-1.105.011-2.211,0-3.315a1.7,1.7,0,0,0,0-.223,1.7,1.7,0,0,0-1.821-1.581,7.774,7.774,0,0,0-1.083.009c-.579.074-.7-.193-.7-.719.01-1.427-.431-1.9-1.808-2.271a28.057,28.057,0,0,1-3.143-1.02,3.046,3.046,0,0,1-2.217-3.489,4.08,4.08,0,0,0,.008-.482,4.055,4.055,0,0,1,2.048-3.532,8.513,8.513,0,0,0,1.887-1.38,6.078,6.078,0,0,1,3.913-1.91,17.113,17.113,0,0,0,12.693-8.721,23.76,23.76,0,0,0,2.836-11.394A2.662,2.662,0,0,0-858.533,133.137Zm-38.9,17.084h0c-.919-.361-1.855-.678-2.748-1.094a14.284,14.284,0,0,1-2.5-1.381,13.646,13.646,0,0,1-3.513-3.831,18.835,18.835,0,0,1-2.575-7.885c-.012-.1-.017-.2-.027-.3-.15-1.458-.15-1.458,1.291-1.458,1.843,0,3.7.027,5.541-.017.6-.015.745.226.792.75a47.1,47.1,0,0,0,1.815,9.624c.518,1.695,1.246,3.327,1.878,4.988.057.148.1.3.144.453l-.1.151Zm15.565,19.029c0,.722.008,1.443.008,2.165a.691.691,0,0,1,0,.192.688.688,0,0,1-.781.579h-2.886v.006h0c-.922,0-1.844.009-2.771,0-.626-.008-.833-.214-.843-.831-.009-.681.009-1.362,0-2.044-.007-.518.239-.807.75-.807q2.885-.014,5.771,0a.66.66,0,0,1,.161,0A.671.671,0,0,1-881.864,169.25Zm4.68-31.621q-1.718,1.557-3.478,3.066a.758.758,0,0,0-.3.874c.4,1.554.76,3.118,1.125,4.681a2.021,2.021,0,0,1,.059.656c-.039.371-.271.474-.6.309-1.558-.783-3.117-1.564-4.665-2.364a.859.859,0,0,0-.888,0c-1.483.755-2.974,1.483-4.473,2.212-.643.311-.783.217-.743-.789h0c.2-.843.473-1.972.742-3.1a1.462,1.462,0,0,1,.078-.29c.661-1.362.129-2.282-1.02-3.1a25.913,25.913,0,0,1-2.489-2.18,2.315,2.315,0,0,1-.349-.639,2.292,2.292,0,0,1,.654-.317q2.21-.277,4.429-.485a1.124,1.124,0,0,0,1.074-.742c.619-1.415,1.305-2.8,1.989-4.187a.562.562,0,0,1,0-.091.555.555,0,0,1,.61-.493.555.555,0,0,1,.493.61q1.068,2.16,2.068,4.351a.763.763,0,0,0,.71.506c1.557.16,3.112.332,4.666.526a2.484,2.484,0,0,1,.668.3A2.316,2.316,0,0,1-877.185,137.629Zm15.044-2.34a21.341,21.341,0,0,1-1.746,6.91,14.1,14.1,0,0,1-5.448,6.179,25.555,25.555,0,0,1-3.881,1.708,1.724,1.724,0,0,1-.427.055h0c.364-.932.74-1.771,1.019-2.643.587-1.827,1.242-3.645,1.65-5.515.5-2.309.805-4.664,1.146-7.006.08-.555.259-.728.822-.718,1.988.036,3.977.016,5.965.016C-862.207,134.277-862.057,134.465-862.14,135.289Z" transform="translate(912.477 -122.579)"/><g transform="translate(0.806)"><path class="f" d="M-176.571,666.336l.18-.181,4.367,4.367-.106.105-1.158,1.156c-.742.744-2.321.368-3.528-.837s-1.581-2.786-.839-3.528l1.082-1.082Z" transform="translate(178.036 -628.979)"/><path class="f" d="M-735.19,82.114a17.016,17.016,0,0,1,17.015,17.017,17.015,17.015,0,0,1-17.015,17.015,16.929,16.929,0,0,1-9.417-2.845l-9.443,9.3-4.367-4.364,9.381-9.24a16.916,16.916,0,0,1-3.172-9.869A17.017,17.017,0,0,1-735.19,82.114Zm-.233,30.731a13.714,13.714,0,0,0,13.714-13.713,13.714,13.714,0,0,0-13.714-13.714,13.713,13.713,0,0,0-13.714,13.714A13.713,13.713,0,0,0-735.423,112.845Z" transform="translate(761.13 -82.114)"/></g></g></g><path class="c" d="M2392.177,1106.52l4.425-2.2-4.74-1.4-2.2-4.427-1.4,4.743-4.427,2.2,4.743,1.4,2.2,4.427Z" transform="translate(-2224.83 -908.588)"/><path class="c" d="M2392.177,1106.52l4.425-2.2-4.74-1.4-2.2-4.427-1.4,4.743-4.427,2.2,4.743,1.4,2.2,4.427Z" transform="translate(-2224.83 -808.588)"/><path class="c" d="M2392.177,1106.52l4.425-2.2-4.74-1.4-2.2-4.427-1.4,4.743-4.427,2.2,4.743,1.4,2.2,4.427Z" transform="translate(-2224.83 -758.588)"/><path class="c" d="M2392.177,1106.52l4.425-2.2-4.74-1.4-2.2-4.427-1.4,4.743-4.427,2.2,4.743,1.4,2.2,4.427Z" transform="translate(-2224.83 -871.588)"/><text class="i" transform="translate(174.917 188.5)"><tspan x="0" y="10">MATCH 3 PRODUCTS WITH THE </tspan><tspan x="0" y="24">SPORT MENTIONED ON THE TOP. </tspan></text><text class="i" transform="translate(174.917 288.5)"><tspan x="0" y="10">ONCE YOU HAVE CHOSEN THREE (3) </tspan><tspan x="0" y="24">CORRECT ANSWERS, CLICK &apos;NEXT&apos; TO </tspan><tspan x="0" y="38">MOVE ON TO THE NEXT ROUND.</tspan></text><text class="i" transform="translate(174.917 338.5)"><tspan x="0" y="10">YOU ARE REQUIRED TO COMPLETE </tspan><tspan x="0" y="24">FOUR (4) ROUNDS BEFORE MOVING </tspan><tspan x="0" y="38">ON TO THE SECOND MINI-GAME.</tspan></text><text class="i" transform="translate(174.917 225.5)"><tspan x="0" y="10">IF THE SELECTED PRODUCTS ARE </tspan><tspan x="0" y="24">COLORED IN GREEN, YOU GUESSED IT </tspan><tspan x="0" y="38">RIGHT! BUT IF IT&apos;S COLORED IN RED, </tspan><tspan x="0" y="52">YOU CHOSE THE WRONG ANSWER. </tspan></text></g></svg>