<svg xmlns="http://www.w3.org/2000/svg" xmlns:xlink="http://www.w3.org/1999/xlink" width="34" height="33" viewBox="0 0 34 33"><defs><style>.a,.c{fill:#fff;}.a{stroke:#707070;}.b{clip-path:url(#a);}.d{fill:#072650;}</style><clipPath id="a"><rect class="a" width="34" height="33" transform="translate(152 719)"/></clipPath></defs><g class="b" transform="translate(-152 -719)"><path class="c" d="M-511.47,482.961H-536.19a2.64,2.64,0,0,0-2.64,2.64v24.719a2.64,2.64,0,0,0,2.64,2.64h24.719a2.64,2.64,0,0,0,2.64-2.64V485.6A2.64,2.64,0,0,0-511.47,482.961Zm-16.386,21.649h-3.008v-9.69h3.008Zm-1.52-11a1.757,1.757,0,0,1-1.742-1.789,1.751,1.751,0,0,1,1.765-1.72,1.756,1.756,0,0,1,1.754,1.754A1.762,1.762,0,0,1-529.377,493.608Zm12.831,10.852c0,.042-.006.085-.011.147h-3.024v-.27c0-1.574,0-3.147,0-4.72a6.355,6.355,0,0,0-.07-.9,1.43,1.43,0,0,0-1.788-1.364,1.5,1.5,0,0,0-1.383,1.3,4.676,4.676,0,0,0-.1.895q-.014,2.414,0,4.828c0,.188-.037.26-.246.257-.84-.012-1.681,0-2.522,0-.084,0-.168-.008-.261-.012v-9.694c.092-.006.175-.015.259-.015.79,0,1.581.008,2.371-.006.227,0,.279.075.269.285a9.155,9.155,0,0,0,.016,1.007,3.181,3.181,0,0,1,1.144-1.086,3.72,3.72,0,0,1,2.247-.409,3.983,3.983,0,0,1,1.308.322,2.817,2.817,0,0,1,1.574,2.134,9.283,9.283,0,0,1,.207,1.723C-516.531,500.739-516.546,502.6-516.546,504.461Z" transform="translate(692.83 237.039)"/><g transform="translate(-152 335)"><rect class="c" width="23" height="22" transform="translate(310 389)"/><path class="d" d="M2301.574,1182.284a6.838,6.838,0,0,0,2.416-.148,6.964,6.964,0,0,0,2.64-1.249.728.728,0,0,0,.06-.062,3.543,3.543,0,0,1-2.022-.709,3.5,3.5,0,0,1-1.24-1.74,3.689,3.689,0,0,0,1.522-.058,3.559,3.559,0,0,1-2.759-3.481,4.069,4.069,0,0,0,1.535.4,3.619,3.619,0,0,1-1.053-4.719,10.109,10.109,0,0,0,7.284,3.707c-.023-.223-.054-.426-.064-.63a3.527,3.527,0,0,1,5.994-2.7.219.219,0,0,0,.233.071,7.119,7.119,0,0,0,1.893-.711c.058-.032.118-.061.206-.106a3.14,3.14,0,0,1-.566,1.084,4.111,4.111,0,0,1-.879.823,6.36,6.36,0,0,0,1.88-.5l.022.028c-.133.176-.259.357-.4.527a6.884,6.884,0,0,1-1.223,1.166.23.23,0,0,0-.1.216,10.086,10.086,0,0,1-1.2,5.083,9.582,9.582,0,0,1-5.5,4.761,10.157,10.157,0,0,1-4.123.5,9.828,9.828,0,0,1-4.364-1.4c-.061-.037-.125-.071-.187-.106Z" transform="translate(-1988.269 -776.851)"/></g></g></svg>